<svg xmlns="http://www.w3.org/2000/svg" viewBox="0 0 312.252 383"><defs><style>.a,.b{fill:#f3f1c8;stroke:#000;stroke-linejoin:round;stroke-width:7px;}.a{stroke-linecap:round;}.b{stroke-linecap:square;}.c{fill:#e5553a;}.d{fill:#37322f;}.e{fill:#961d59;}.e,.f{fill-rule:evenodd;}.f,.g{fill:#d62783;}.h,.i{fill:none;stroke-miterlimit:10;}.h{stroke:#37322f;stroke-width:2px;}.i{stroke:#695f59;stroke-width:5px;}</style></defs><title>SITREP</title><path class="a" d="M278.512,379.5l-271-11.611L23.108,3.834l273.173,11.7a2.158,2.158,0,0,1,2.063,2.248h0a2.157,2.157,0,0,0,1.041,1.94l6.228,3.754a6.489,6.489,0,0,1,3.133,5.834L304.3,133.051a6.488,6.488,0,0,1-3.806,5.632l-3.841,1.739a6.488,6.488,0,0,0-3.806,5.632l-9.824,229.3A4.33,4.33,0,0,1,278.512,379.5Z"/><path class="b" d="M274.751,367.885H3.5V3.5H276.923a2.157,2.157,0,0,1,2.157,2.157h0A2.157,2.157,0,0,0,280.2,7.551l6.383,3.484a6.487,6.487,0,0,1,3.379,5.694V120.562a6.487,6.487,0,0,1-3.562,5.79l-3.762,1.9a6.489,6.489,0,0,0-3.562,5.79V363.555A4.33,4.33,0,0,1,274.751,367.885Z"/><polygon class="c" points="41.6 187.176 41.6 165.767 27.277 151.444 27.277 172.853 41.6 187.176"/><polygon class="c" points="41.6 154.671 41.6 133.261 27.277 118.938 27.277 140.348 41.6 154.671"/><polygon class="c" points="81.898 336.087 67.574 321.764 46.165 321.764 60.488 336.087 81.898 336.087"/><polygon class="c" points="41.6 284.693 41.6 263.284 27.277 248.96 27.277 270.37 41.6 284.693"/><polygon class="c" points="41.6 317.199 41.6 295.789 27.277 281.466 27.277 302.875 41.6 317.199"/><polygon class="c" points="41.6 252.188 41.6 230.778 27.277 216.455 27.277 237.864 41.6 252.188"/><polygon class="c" points="41.6 122.165 41.6 100.756 27.277 86.433 27.277 107.842 41.6 122.165"/><polygon class="c" points="203.108 34.725 181.699 34.725 196.022 49.048 217.431 49.048 203.108 34.725"/><polygon class="c" points="41.6 57.154 41.6 49.048 54.903 49.048 40.58 34.725 27.277 34.725 27.277 42.831 41.6 57.154"/><polygon class="c" points="163.516 49.048 184.926 49.048 170.602 34.725 149.193 34.725 163.516 49.048"/><polygon class="c" points="254.731 42.746 254.731 34.725 246.71 34.725 254.731 42.746"/><polygon class="c" points="98.505 49.048 119.914 49.048 105.591 34.725 84.182 34.725 98.505 49.048"/><polygon class="c" points="65.999 49.048 87.409 49.048 73.086 34.725 51.676 34.725 65.999 49.048"/><polygon class="c" points="131.011 49.048 152.42 49.048 138.097 34.725 116.687 34.725 131.011 49.048"/><polygon class="c" points="41.6 89.66 41.6 68.25 27.277 53.927 27.277 75.336 41.6 89.66"/><polygon class="c" points="41.6 219.682 41.6 198.273 27.277 183.949 27.277 205.359 41.6 219.682"/><polygon class="c" points="240.407 104.53 240.407 125.939 254.731 140.263 254.731 118.853 240.407 104.53"/><polygon class="c" points="240.407 137.035 240.407 158.445 254.731 172.768 254.731 151.359 240.407 137.035"/><polygon class="c" points="240.407 169.541 240.407 190.95 254.731 205.274 254.731 183.864 240.407 169.541"/><polygon class="c" points="240.407 72.024 240.407 93.434 254.731 107.757 254.731 86.348 240.407 72.024"/><polygon class="c" points="27.277 313.972 27.277 336.087 49.392 336.087 27.277 313.972"/><polygon class="c" points="240.407 202.047 240.407 223.456 254.731 237.779 254.731 216.37 240.407 202.047"/><polygon class="c" points="235.613 34.725 214.204 34.725 228.527 49.048 240.407 49.048 240.407 60.928 254.731 75.251 254.731 53.842 235.613 34.725"/><polygon class="c" points="240.407 234.552 240.407 255.962 254.731 270.285 254.731 248.875 240.407 234.552"/><polygon class="c" points="100.08 321.764 78.671 321.764 92.994 336.087 114.403 336.087 100.08 321.764"/><polygon class="c" points="132.586 321.764 111.176 321.764 125.499 336.087 146.909 336.087 132.586 321.764"/><polygon class="c" points="197.597 321.764 176.187 321.764 190.511 336.087 211.92 336.087 197.597 321.764"/><polygon class="c" points="165.091 321.764 143.682 321.764 158.005 336.087 179.414 336.087 165.091 321.764"/><polygon class="c" points="240.407 267.058 240.407 288.467 254.731 302.79 254.731 281.381 240.407 267.058"/><polygon class="c" points="230.102 321.764 208.693 321.764 223.016 336.087 244.426 336.087 230.102 321.764"/><polygon class="c" points="240.407 299.563 240.407 320.973 254.731 335.296 254.731 313.887 240.407 299.563"/><path class="d" d="M80.646,121.772a16.842,16.842,0,0,1-5.879-1.083,15.331,15.331,0,0,1-5.233-3.251l3.873-4.657a14.658,14.658,0,0,0,3.573,2.26,9.392,9.392,0,0,0,3.851.876,5.22,5.22,0,0,0,3.158-.784,2.518,2.518,0,0,0,1.038-2.121,2.31,2.31,0,0,0-.3-1.2,2.86,2.86,0,0,0-.876-.9,8.273,8.273,0,0,0-1.383-.738l-1.776-.761-3.919-1.66a11.616,11.616,0,0,1-2.236-1.2,9.812,9.812,0,0,1-1.937-1.729,7.794,7.794,0,0,1-1.36-2.306,8.185,8.185,0,0,1-.508-2.974,7.957,7.957,0,0,1,.785-3.481,8.628,8.628,0,0,1,2.213-2.858,10.542,10.542,0,0,1,3.389-1.914A12.874,12.874,0,0,1,81.43,90.6a13.977,13.977,0,0,1,5.188,1.015,13.128,13.128,0,0,1,4.5,2.95l-3.458,4.289A13.1,13.1,0,0,0,84.7,97.081a8.343,8.343,0,0,0-3.274-.623,4.84,4.84,0,0,0-2.789.715A2.3,2.3,0,0,0,77.6,99.179a1.963,1.963,0,0,0,.346,1.175,3.348,3.348,0,0,0,.968.876,9.67,9.67,0,0,0,1.453.738q.829.346,1.8.761l3.873,1.568A10.575,10.575,0,0,1,90.4,107.34a7.806,7.806,0,0,1,1.591,5.118,8.524,8.524,0,0,1-2.974,6.525,11.035,11.035,0,0,1-3.573,2.029A14.155,14.155,0,0,1,80.646,121.772Z"/><path class="d" d="M97.107,91.155h6.78v30.064h-6.78Z"/><path class="d" d="M116.843,96.873h-8.254V91.155h23.332v5.718h-8.254v24.346h-6.824Z"/><path class="d" d="M152.9,121.219l-5.763-10.836H143.4v10.836h-6.778V91.155H147.46a20.933,20.933,0,0,1,4.5.462,10.234,10.234,0,0,1,3.666,1.544,7.713,7.713,0,0,1,2.49,2.882,9.738,9.738,0,0,1,.922,4.473,9.546,9.546,0,0,1-1.452,5.464,8.873,8.873,0,0,1-3.9,3.2l6.824,12.034Zm-9.5-16.231h3.5a6.394,6.394,0,0,0,4.081-1.129,4.032,4.032,0,0,0,1.407-3.343,3.348,3.348,0,0,0-1.407-3.09,7.793,7.793,0,0,0-4.081-.876h-3.5Z"/><path class="d" d="M164.89,91.155H183.7v5.718H171.668v6.041H181.9v5.671H171.668V115.5h12.5v5.718H164.89Z"/><path class="d" d="M190.157,91.155h10.328a21.328,21.328,0,0,1,4.658.485,10.506,10.506,0,0,1,3.781,1.613,7.986,7.986,0,0,1,2.558,3,10.091,10.091,0,0,1,.946,4.588,10.3,10.3,0,0,1-.946,4.565,8.848,8.848,0,0,1-2.558,3.182,10.9,10.9,0,0,1-3.736,1.845,16.567,16.567,0,0,1-4.518.6h-3.734v10.19h-6.779Zm10.1,14.479q5.534,0,5.533-4.8a3.668,3.668,0,0,0-1.475-3.319,7.736,7.736,0,0,0-4.243-.969h-3.134v9.084Z"/><path class="e" d="M139.354,252.012a12.172,12.172,0,1,1,.117,0h-.117"/><path class="f" d="M162.979,245.411a5.6,5.6,0,1,1,5.6-5.6h0a5.583,5.583,0,0,1-5.568,5.6h-.03"/><path class="f" d="M183.464,250.689h0a5.359,5.359,0,1,1,.117-.437.641.641,0,0,1-.117.437"/><path class="f" d="M179.51,236.266a5.612,5.612,0,1,1,4.081-6.806l.019.075a5.829,5.829,0,0,1,0,2.195,5.4,5.4,0,0,1-4.217,4.551"/><path class="f" d="M199.428,250.078a4.712,4.712,0,1,1,.174-.509,1.455,1.455,0,0,0-.116.494"/><path class="f" d="M194.862,236.019a5.583,5.583,0,1,1,4.595-6.426,6.313,6.313,0,0,1,0,1.454,5.554,5.554,0,0,1-4.595,4.972"/><path class="f" d="M190.966,269.458h0a5.67,5.67,0,1,1,.7-2.3,5.046,5.046,0,0,1-.7,2.3"/><path class="f" d="M188.945,218.021a5.612,5.612,0,1,1,2.137-7.648,5.235,5.235,0,0,1,.7,3.242,5.61,5.61,0,0,1-2.82,4.362"/><path class="g" d="M139.572,296.223a56.278,56.278,0,1,1-1.808-112.542q.9-.015,1.808,0a55.725,55.725,0,0,1,34.166,11.63l-6.877,8.971a44.924,44.924,0,1,0,.015,71.413l6.862,8.985A55.786,55.786,0,0,1,139.572,296.223Z"/><rect class="h" x="69.387" y="132.983" width="144.952" height="36.095"/><line class="i" x1="76.262" y1="140.431" x2="175.953" y2="140.431"/><line class="i" x1="76.262" y1="148.452" x2="155.327" y2="148.452"/></svg>